<mxfile host="app.diagrams.net" agent="Mozilla/5.0 (Windows NT 10.0; Win64; x64) AppleWebKit/537.36 (KHTML, like Gecko) Chrome/140.0.0.0 Safari/537.36" version="28.2.5">
  <diagram name="Страница — 1" id="-iDLWMjSoZEkCURQCjcx">
    <mxGraphModel dx="1426" dy="751" grid="1" gridSize="10" guides="1" tooltips="1" connect="1" arrows="1" fold="1" page="1" pageScale="1" pageWidth="827" pageHeight="1169" math="0" shadow="0">
      <root>
        <mxCell id="0" />
        <mxCell id="1" parent="0" />
        <mxCell id="vBvjksQfUQq33LeBR3S2-31" style="edgeStyle=orthogonalEdgeStyle;rounded=0;orthogonalLoop=1;jettySize=auto;html=1;exitX=0;exitY=0.5;exitDx=0;exitDy=0;entryX=0;entryY=0.5;entryDx=0;entryDy=0;" edge="1" parent="1" source="vBvjksQfUQq33LeBR3S2-1" target="vBvjksQfUQq33LeBR3S2-13">
          <mxGeometry relative="1" as="geometry" />
        </mxCell>
        <mxCell id="vBvjksQfUQq33LeBR3S2-1" value="Emplado" style="rounded=0;whiteSpace=wrap;html=1;" vertex="1" parent="1">
          <mxGeometry x="110" y="60" width="120" height="60" as="geometry" />
        </mxCell>
        <mxCell id="vBvjksQfUQq33LeBR3S2-2" value="Clientes" style="rounded=0;whiteSpace=wrap;html=1;" vertex="1" parent="1">
          <mxGeometry x="100" y="380" width="120" height="60" as="geometry" />
        </mxCell>
        <mxCell id="vBvjksQfUQq33LeBR3S2-25" style="edgeStyle=orthogonalEdgeStyle;rounded=0;orthogonalLoop=1;jettySize=auto;html=1;exitX=1;exitY=0.5;exitDx=0;exitDy=0;" edge="1" parent="1" source="vBvjksQfUQq33LeBR3S2-4">
          <mxGeometry relative="1" as="geometry">
            <mxPoint x="690" y="410" as="targetPoint" />
          </mxGeometry>
        </mxCell>
        <mxCell id="vBvjksQfUQq33LeBR3S2-4" value="Provedor" style="rounded=0;whiteSpace=wrap;html=1;" vertex="1" parent="1">
          <mxGeometry x="520" y="380" width="120" height="60" as="geometry" />
        </mxCell>
        <mxCell id="vBvjksQfUQq33LeBR3S2-29" style="edgeStyle=orthogonalEdgeStyle;rounded=0;orthogonalLoop=1;jettySize=auto;html=1;exitX=1;exitY=0.5;exitDx=0;exitDy=0;" edge="1" parent="1" source="vBvjksQfUQq33LeBR3S2-5" target="vBvjksQfUQq33LeBR3S2-19">
          <mxGeometry relative="1" as="geometry" />
        </mxCell>
        <mxCell id="vBvjksQfUQq33LeBR3S2-5" value="Farbicante" style="rounded=0;whiteSpace=wrap;html=1;" vertex="1" parent="1">
          <mxGeometry x="520" y="555" width="120" height="60" as="geometry" />
        </mxCell>
        <mxCell id="vBvjksQfUQq33LeBR3S2-13" value="&lt;br&gt;&lt;div&gt;&lt;u&gt;codEmp&lt;/u&gt;&lt;/div&gt;&lt;div&gt;&lt;u&gt;Dni&lt;/u&gt;&lt;/div&gt;&lt;div&gt;nom&lt;/div&gt;&lt;div&gt;ape1&lt;/div&gt;&lt;div&gt;ape2&lt;/div&gt;&lt;div&gt;&lt;code data-end=&quot;1028&quot; data-start=&quot;1012&quot;&gt;cuentaBancaria&lt;/code&gt;&lt;/div&gt;&lt;div&gt;&lt;ul&gt;&lt;li&gt;&lt;code data-end=&quot;1028&quot; data-start=&quot;1012&quot;&gt;&lt;span style=&quot;white-space: pre;&quot;&gt;&#x9;&lt;/span&gt;banco&lt;/code&gt;&lt;/li&gt;&lt;li&gt;&lt;code data-end=&quot;1028&quot; data-start=&quot;1012&quot;&gt;&lt;span style=&quot;white-space: pre;&quot;&gt;&#x9;&lt;/span&gt;sucural&lt;/code&gt;&lt;/li&gt;&lt;li&gt;&lt;code data-end=&quot;1028&quot; data-start=&quot;1012&quot;&gt;&lt;span style=&quot;white-space: pre;&quot;&gt;&#x9;&lt;/span&gt;digitos controles&lt;/code&gt;&lt;/li&gt;&lt;li&gt;&lt;code data-end=&quot;1028&quot; data-start=&quot;1012&quot;&gt;&lt;span style=&quot;white-space: pre;&quot;&gt;&#x9;&lt;/span&gt;numero cunta&lt;/code&gt;&lt;/li&gt;&lt;/ul&gt;&lt;/div&gt;&lt;div&gt;&lt;br&gt;&lt;/div&gt;" style="text;html=1;align=left;verticalAlign=middle;whiteSpace=wrap;rounded=0;" vertex="1" parent="1">
          <mxGeometry x="60" y="160" width="210" height="110" as="geometry" />
        </mxCell>
        <mxCell id="vBvjksQfUQq33LeBR3S2-26" style="edgeStyle=orthogonalEdgeStyle;rounded=0;orthogonalLoop=1;jettySize=auto;html=1;exitX=1;exitY=0.5;exitDx=0;exitDy=0;" edge="1" parent="1" source="vBvjksQfUQq33LeBR3S2-15" target="vBvjksQfUQq33LeBR3S2-16">
          <mxGeometry relative="1" as="geometry">
            <mxPoint x="710" y="90" as="targetPoint" />
          </mxGeometry>
        </mxCell>
        <mxCell id="vBvjksQfUQq33LeBR3S2-15" value="Movil" style="rounded=0;whiteSpace=wrap;html=1;" vertex="1" parent="1">
          <mxGeometry x="480" y="60" width="120" height="60" as="geometry" />
        </mxCell>
        <mxCell id="vBvjksQfUQq33LeBR3S2-16" value="&lt;u&gt;codMov&lt;/u&gt;&lt;div&gt;modelo&lt;/div&gt;&lt;div&gt;prcioCoste&lt;/div&gt;&lt;div&gt;precioVEnte&lt;/div&gt;&lt;div&gt;&lt;i&gt;&lt;b&gt;margen (&lt;/b&gt;&lt;/i&gt;&lt;span style=&quot;background-color: transparent;&quot;&gt;&lt;b&gt;&lt;i&gt;derivado)&amp;nbsp;&lt;/i&gt;&lt;/b&gt;&lt;/span&gt;&lt;/div&gt;" style="text;html=1;align=left;verticalAlign=middle;whiteSpace=wrap;rounded=0;" vertex="1" parent="1">
          <mxGeometry x="690" y="140" width="130" height="140" as="geometry" />
        </mxCell>
        <mxCell id="vBvjksQfUQq33LeBR3S2-17" value="&lt;u&gt;Dni&lt;/u&gt;&lt;div&gt;nombre&lt;/div&gt;&lt;div&gt;ape1&lt;/div&gt;&lt;div&gt;ape2&lt;/div&gt;&lt;div&gt;O.emil&lt;/div&gt;" style="text;html=1;align=left;verticalAlign=middle;whiteSpace=wrap;rounded=0;" vertex="1" parent="1">
          <mxGeometry x="40" y="570" width="60" height="30" as="geometry" />
        </mxCell>
        <mxCell id="vBvjksQfUQq33LeBR3S2-18" value="&lt;u&gt;codProv&lt;/u&gt;&lt;div&gt;nombre&lt;/div&gt;&lt;div&gt;telefono&lt;/div&gt;" style="text;html=1;align=left;verticalAlign=middle;whiteSpace=wrap;rounded=0;" vertex="1" parent="1">
          <mxGeometry x="700" y="400" width="60" height="30" as="geometry" />
        </mxCell>
        <mxCell id="vBvjksQfUQq33LeBR3S2-19" value="&lt;u&gt;Fabricante&lt;/u&gt;&lt;div&gt;telefono&lt;/div&gt;" style="text;html=1;align=left;verticalAlign=middle;whiteSpace=wrap;rounded=0;" vertex="1" parent="1">
          <mxGeometry x="720" y="690" width="60" height="30" as="geometry" />
        </mxCell>
        <mxCell id="vBvjksQfUQq33LeBR3S2-22" value="" style="endArrow=none;html=1;rounded=0;entryX=0;entryY=0.5;entryDx=0;entryDy=0;" edge="1" parent="1" target="vBvjksQfUQq33LeBR3S2-2">
          <mxGeometry width="50" height="50" relative="1" as="geometry">
            <mxPoint x="50" y="410" as="sourcePoint" />
            <mxPoint x="70" y="420" as="targetPoint" />
          </mxGeometry>
        </mxCell>
        <mxCell id="vBvjksQfUQq33LeBR3S2-23" value="" style="endArrow=classic;html=1;rounded=0;" edge="1" parent="1">
          <mxGeometry width="50" height="50" relative="1" as="geometry">
            <mxPoint x="50" y="410" as="sourcePoint" />
            <mxPoint x="50" y="540" as="targetPoint" />
          </mxGeometry>
        </mxCell>
      </root>
    </mxGraphModel>
  </diagram>
</mxfile>
